<?xml version="1.0" encoding="UTF-8"?>
<mxfile host="app.diagrams.net" modified="2025-09-19T22:54:07.274299" agent="MCP-Generator" version="1.0.0">
  <diagram name="BMC Bolsa Comisionista - Complete Architecture" id="diagram_1758340447">
    <mxGraphModel dx="3000" dy="2000" grid="1" gridSize="10" guides="1" tooltips="1" connect="1" arrows="1" fold="1" page="1" pageScale="1" pageWidth="3000" pageHeight="2000" background="white">
      <root>
        <mxCell id="0"/>
        <mxCell id="1" parent="0"/>
        <mxCell id="title" value="BMC Bolsa Comisionista - Complete Architecture" style="rounded=0;whiteSpace=wrap;html=1;fillColor=#232F3E;fontColor=#FFFFFF;fontSize=18;fontStyle=1;align=center;verticalAlign=middle;" vertex="1" parent="1">
          <mxGeometry x="50" y="20" width="2900" height="60" as="geometry"/>
        </mxCell>
        <mxCell id="bmc_users" value="BMC Users\n10K Concurrent\nRegulatory System" style="sketch=0;points=[[0,0,0],[0.25,0,0],[0.5,0,0],[0.75,0,0],[1,0,0],[0,1,0],[0.25,1,0],[0.5,1,0],[0.75,1,0],[1,1,0],[0,0.25,0],[0,0.5,0],[0,0.75,0],[1,0.25,0],[1,0.5,0],[1,0.75,0]];outlineConnect=0;fontColor=#232F3E;gradientColor=#4CAF50;gradientDirection=north;fillColor=#2E7D32;strokeColor=#ffffff;dashed=0;verticalLabelPosition=bottom;verticalAlign=top;align=center;html=1;fontSize=10;fontStyle=0;aspect=fixed;shape=mxgraph.aws4.users;" vertex="1" parent="1">
          <mxGeometry x="100" y="150" width="100" height="80" as="geometry"/>
        </mxCell>
        <mxCell id="internet" value="Internet\nHTTPS/TLS 1.3" style="sketch=0;points=[[0,0,0],[0.25,0,0],[0.5,0,0],[0.75,0,0],[1,0,0],[0,1,0],[0.25,1,0],[0.5,1,0],[0.75,1,0],[1,1,0],[0,0.25,0],[0,0.5,0],[0,0.75,0],[1,0.25,0],[1,0.5,0],[1,0.75,0]];outlineConnect=0;fontColor=#232F3E;gradientColor=#1976D2;gradientDirection=north;fillColor=#0D47A1;strokeColor=#ffffff;dashed=0;verticalLabelPosition=bottom;verticalAlign=top;align=center;html=1;fontSize=10;fontStyle=0;aspect=fixed;shape=mxgraph.aws4.internet_gateway;" vertex="1" parent="1">
          <mxGeometry x="300" y="150" width="80" height="80" as="geometry"/>
        </mxCell>
        <mxCell id="aws_cloud" value="AWS Cloud - us-east-1\nBMC Production Environment" style="fillColor=#E3F2FD;strokeColor=#1976D2;strokeWidth=3;dashed=1;verticalAlign=top;fontStyle=1;fontColor=#1976D2;whiteSpace=wrap;html=1;fontSize=12;" vertex="1" parent="1">
          <mxGeometry x="50" y="300" width="2800" height="1600" as="geometry"/>
        </mxCell>
        <mxCell id="edge_security" value="Edge &amp; Security Layer" style="fillColor=#FFEBEE;strokeColor=#F44336;strokeWidth=2;dashed=1;verticalAlign=top;fontStyle=1;fontColor=#C62828;whiteSpace=wrap;html=1;fontSize=12;" vertex="1" parent="aws_cloud">
          <mxGeometry x="100" y="100" width="2600" height="200" as="geometry"/>
        </mxCell>
        <mxCell id="cloudfront" value="CloudFront CDN\nGlobal Edge\nSSL Termination" style="sketch=0;points=[[0,0,0],[0.25,0,0],[0.5,0,0],[0.75,0,0],[1,0,0],[0,1,0],[0.25,1,0],[0.5,1,0],[0.75,1,0],[1,1,0],[0,0.25,0],[0,0.5,0],[0,0.75,0],[1,0.25,0],[1,0.5,0],[1,0.75,0]];outlineConnect=0;fontColor=#232F3E;gradientColor=#945DF2;gradientDirection=north;fillColor=#5A30B5;strokeColor=#ffffff;dashed=0;verticalLabelPosition=bottom;verticalAlign=top;align=center;html=1;fontSize=10;fontStyle=0;aspect=fixed;shape=mxgraph.aws4.cloudfront;" vertex="1" parent="edge_security">
          <mxGeometry x="100" y="80" width="120" height="100" as="geometry"/>
        </mxCell>
        <mxCell id="waf" value="AWS WAF\nDDoS Protection\nRate Limiting" style="sketch=0;points=[[0,0,0],[0.25,0,0],[0.5,0,0],[0.75,0,0],[1,0,0],[0,1,0],[0.25,1,0],[0.5,1,0],[0.75,1,0],[1,1,0],[0,0.25,0],[0,0.5,0],[0,0.75,0],[1,0.25,0],[1,0.5,0],[1,0.75,0]];outlineConnect=0;fontColor=#232F3E;gradientColor=#F54749;gradientDirection=north;fillColor=#C7131F;strokeColor=#ffffff;dashed=0;verticalLabelPosition=bottom;verticalAlign=top;align=center;html=1;fontSize=10;fontStyle=0;aspect=fixed;shape=mxgraph.aws4.waf;" vertex="1" parent="edge_security">
          <mxGeometry x="300" y="80" width="120" height="100" as="geometry"/>
        </mxCell>
        <mxCell id="api_gateway" value="API Gateway\nREST + GraphQL\n10K req/sec" style="sketch=0;points=[[0,0,0],[0.25,0,0],[0.5,0,0],[0.75,0,0],[1,0,0],[0,1,0],[0.25,1,0],[0.5,1,0],[0.75,1,0],[1,1,0],[0,0.25,0],[0,0.5,0],[0,0.75,0],[1,0.25,0],[1,0.5,0],[1,0.75,0]];outlineConnect=0;fontColor=#232F3E;gradientColor=#945DF2;gradientDirection=north;fillColor=#5A30B5;strokeColor=#ffffff;dashed=0;verticalLabelPosition=bottom;verticalAlign=top;align=center;html=1;fontSize=10;fontStyle=0;aspect=fixed;shape=mxgraph.aws4.api_gateway;" vertex="1" parent="edge_security">
          <mxGeometry x="500" y="80" width="120" height="100" as="geometry"/>
        </mxCell>
        <mxCell id="cognito" value="Cognito\nUser Pool\nMFA Enabled" style="sketch=0;points=[[0,0,0],[0.25,0,0],[0.5,0,0],[0.75,0,0],[1,0,0],[0,1,0],[0.25,1,0],[0.5,1,0],[0.75,1,0],[1,1,0],[0,0.25,0],[0,0.5,0],[0,0.75,0],[1,0.25,0],[1,0.5,0],[1,0.75,0]];outlineConnect=0;fontColor=#232F3E;gradientColor=#F54749;gradientDirection=north;fillColor=#C7131F;strokeColor=#ffffff;dashed=0;verticalLabelPosition=bottom;verticalAlign=top;align=center;html=1;fontSize=10;fontStyle=0;aspect=fixed;shape=mxgraph.aws4.cognito;" vertex="1" parent="edge_security">
          <mxGeometry x="700" y="80" width="120" height="100" as="geometry"/>
        </mxCell>
        <mxCell id="vpc_main" value="VPC 10.0.0.0/16\nBMC Production Network" style="fillColor=#E3F2FD;strokeColor=#1976D2;strokeWidth=3;dashed=1;verticalAlign=top;fontStyle=1;fontColor=#1976D2;whiteSpace=wrap;html=1;fontSize=12;" vertex="1" parent="aws_cloud">
          <mxGeometry x="100" y="350" width="2600" height="1200" as="geometry"/>
        </mxCell>
        <mxCell id="az_a" value="AZ us-east-1a - Primary" style="fillColor=#E8F5E8;strokeColor=#4CAF50;strokeWidth=2;dashed=1;verticalAlign=top;fontStyle=1;fontColor=#2E7D32;whiteSpace=wrap;html=1;fontSize=12;" vertex="1" parent="vpc_main">
          <mxGeometry x="50" y="50" width="1200" height="1100" as="geometry"/>
        </mxCell>
        <mxCell id="public_a" value="Public Subnet A\n10.0.1.0/24" style="fillColor=#FFF3E0;strokeColor=#FF9800;strokeWidth=2;dashed=1;verticalAlign=top;fontStyle=1;fontColor=#E65100;whiteSpace=wrap;html=1;fontSize=12;" vertex="1" parent="az_a">
          <mxGeometry x="50" y="50" width="500" height="200" as="geometry"/>
        </mxCell>
        <mxCell id="alb" value="Application LB\nMulti-AZ\nSSL Termination" style="sketch=0;points=[[0,0,0],[0.25,0,0],[0.5,0,0],[0.75,0,0],[1,0,0],[0,1,0],[0.25,1,0],[0.5,1,0],[0.75,1,0],[1,1,0],[0,0.25,0],[0,0.5,0],[0,0.75,0],[1,0.25,0],[1,0.5,0],[1,0.75,0]];outlineConnect=0;fontColor=#232F3E;gradientColor=#8C4FFF;gradientDirection=north;fillColor=#5A30B5;strokeColor=#ffffff;dashed=0;verticalLabelPosition=bottom;verticalAlign=top;align=center;html=1;fontSize=10;fontStyle=0;aspect=fixed;shape=mxgraph.aws4.elastic_load_balancing;" vertex="1" parent="public_a">
          <mxGeometry x="100" y="80" width="120" height="80" as="geometry"/>
        </mxCell>
        <mxCell id="nat_a" value="NAT Gateway A\n45 Gbps" style="sketch=0;points=[[0,0,0],[0.25,0,0],[0.5,0,0],[0.75,0,0],[1,0,0],[0,1,0],[0.25,1,0],[0.5,1,0],[0.75,1,0],[1,1,0],[0,0.25,0],[0,0.5,0],[0,0.75,0],[1,0.25,0],[1,0.5,0],[1,0.75,0]];outlineConnect=0;fontColor=#232F3E;gradientColor=#E0E0E0;gradientDirection=north;fillColor=#BDBDBD;strokeColor=#ffffff;dashed=0;verticalLabelPosition=bottom;verticalAlign=top;align=center;html=1;fontSize=10;fontStyle=0;aspect=fixed;shape=rounded=1;whiteSpace=wrap;html=1;;" vertex="1" parent="public_a">
          <mxGeometry x="300" y="80" width="100" height="80" as="geometry"/>
        </mxCell>
        <mxCell id="private_a" value="Private Subnet A\n10.0.10.0/24\nMicroservices Layer" style="fillColor=#FFF3E0;strokeColor=#FF9800;strokeWidth=2;dashed=1;verticalAlign=top;fontStyle=1;fontColor=#E65100;whiteSpace=wrap;html=1;fontSize=12;" vertex="1" parent="az_a">
          <mxGeometry x="50" y="300" width="1100" height="400" as="geometry"/>
        </mxCell>
        <mxCell id="invoice_service" value="Invoice Service\nECS Fargate\n10K facturas/hora" style="sketch=0;points=[[0,0,0],[0.25,0,0],[0.5,0,0],[0.75,0,0],[1,0,0],[0,1,0],[0.25,1,0],[0.5,1,0],[0.75,1,0],[1,1,0],[0,0.25,0],[0,0.5,0],[0,0.75,0],[1,0.25,0],[1,0.5,0],[1,0.75,0]];outlineConnect=0;fontColor=#232F3E;gradientColor=#F78E04;gradientDirection=north;fillColor=#D05C17;strokeColor=#ffffff;dashed=0;verticalLabelPosition=bottom;verticalAlign=top;align=center;html=1;fontSize=10;fontStyle=0;aspect=fixed;shape=mxgraph.aws4.fargate;" vertex="1" parent="private_a">
          <mxGeometry x="50" y="80" width="150" height="100" as="geometry"/>
        </mxCell>
        <mxCell id="product_service" value="Product Service\nECS Fargate\n60M productos" style="sketch=0;points=[[0,0,0],[0.25,0,0],[0.5,0,0],[0.75,0,0],[1,0,0],[0,1,0],[0.25,1,0],[0.5,1,0],[0.75,1,0],[1,1,0],[0,0.25,0],[0,0.5,0],[0,0.75,0],[1,0.25,0],[1,0.5,0],[1,0.75,0]];outlineConnect=0;fontColor=#232F3E;gradientColor=#F78E04;gradientDirection=north;fillColor=#D05C17;strokeColor=#ffffff;dashed=0;verticalLabelPosition=bottom;verticalAlign=top;align=center;html=1;fontSize=10;fontStyle=0;aspect=fixed;shape=mxgraph.aws4.fargate;" vertex="1" parent="private_a">
          <mxGeometry x="250" y="80" width="150" height="100" as="geometry"/>
        </mxCell>
        <mxCell id="ocr_service" value="OCR Service\nECS Fargate\n95% precisiÃ³n" style="sketch=0;points=[[0,0,0],[0.25,0,0],[0.5,0,0],[0.75,0,0],[1,0,0],[0,1,0],[0.25,1,0],[0.5,1,0],[0.75,1,0],[1,1,0],[0,0.25,0],[0,0.5,0],[0,0.75,0],[1,0.25,0],[1,0.5,0],[1,0.75,0]];outlineConnect=0;fontColor=#232F3E;gradientColor=#F78E04;gradientDirection=north;fillColor=#D05C17;strokeColor=#ffffff;dashed=0;verticalLabelPosition=bottom;verticalAlign=top;align=center;html=1;fontSize=10;fontStyle=0;aspect=fixed;shape=mxgraph.aws4.fargate;" vertex="1" parent="private_a">
          <mxGeometry x="450" y="80" width="150" height="100" as="geometry"/>
        </mxCell>
        <mxCell id="commission_service" value="Commission Service\nECS Fargate\nDIAN Compliance" style="sketch=0;points=[[0,0,0],[0.25,0,0],[0.5,0,0],[0.75,0,0],[1,0,0],[0,1,0],[0.25,1,0],[0.5,1,0],[0.75,1,0],[1,1,0],[0,0.25,0],[0,0.5,0],[0,0.75,0],[1,0.25,0],[1,0.5,0],[1,0.75,0]];outlineConnect=0;fontColor=#232F3E;gradientColor=#F78E04;gradientDirection=north;fillColor=#D05C17;strokeColor=#ffffff;dashed=0;verticalLabelPosition=bottom;verticalAlign=top;align=center;html=1;fontSize=10;fontStyle=0;aspect=fixed;shape=mxgraph.aws4.fargate;" vertex="1" parent="private_a">
          <mxGeometry x="650" y="80" width="150" height="100" as="geometry"/>
        </mxCell>
        <mxCell id="certificate_service" value="Certificate Service\nECS Fargate\nPDF Generation" style="sketch=0;points=[[0,0,0],[0.25,0,0],[0.5,0,0],[0.75,0,0],[1,0,0],[0,1,0],[0.25,1,0],[0.5,1,0],[0.75,1,0],[1,1,0],[0,0.25,0],[0,0.5,0],[0,0.75,0],[1,0.25,0],[1,0.5,0],[1,0.75,0]];outlineConnect=0;fontColor=#232F3E;gradientColor=#F78E04;gradientDirection=north;fillColor=#D05C17;strokeColor=#ffffff;dashed=0;verticalLabelPosition=bottom;verticalAlign=top;align=center;html=1;fontSize=10;fontStyle=0;aspect=fixed;shape=mxgraph.aws4.fargate;" vertex="1" parent="private_a">
          <mxGeometry x="850" y="80" width="150" height="100" as="geometry"/>
        </mxCell>
        <mxCell id="isolated_a" value="Isolated Subnet A\n10.0.20.0/24\nDatabase Layer" style="fillColor=#FFF3E0;strokeColor=#FF9800;strokeWidth=2;dashed=1;verticalAlign=top;fontStyle=1;fontColor=#E65100;whiteSpace=wrap;html=1;fontSize=12;" vertex="1" parent="az_a">
          <mxGeometry x="50" y="750" width="1100" height="300" as="geometry"/>
        </mxCell>
        <mxCell id="rds_primary" value="RDS PostgreSQL\nPrimary Instance\n60M productos\ndb.r5.2xlarge" style="sketch=0;points=[[0,0,0],[0.25,0,0],[0.5,0,0],[0.75,0,0],[1,0,0],[0,1,0],[0.25,1,0],[0.5,1,0],[0.75,1,0],[1,1,0],[0,0.25,0],[0,0.5,0],[0,0.75,0],[1,0.25,0],[1,0.5,0],[1,0.75,0]];outlineConnect=0;fontColor=#232F3E;gradientColor=#4AB29A;gradientDirection=north;fillColor=#116D5B;strokeColor=#ffffff;dashed=0;verticalLabelPosition=bottom;verticalAlign=top;align=center;html=1;fontSize=10;fontStyle=0;aspect=fixed;shape=mxgraph.aws4.rds;" vertex="1" parent="isolated_a">
          <mxGeometry x="100" y="100" width="200" height="120" as="geometry"/>
        </mxCell>
        <mxCell id="elasticache" value="ElastiCache Redis\nSession Store\ncache.r6g.large" style="sketch=0;points=[[0,0,0],[0.25,0,0],[0.5,0,0],[0.75,0,0],[1,0,0],[0,1,0],[0.25,1,0],[0.5,1,0],[0.75,1,0],[1,1,0],[0,0.25,0],[0,0.5,0],[0,0.75,0],[1,0.25,0],[1,0.5,0],[1,0.75,0]];outlineConnect=0;fontColor=#232F3E;gradientColor=#E0E0E0;gradientDirection=north;fillColor=#BDBDBD;strokeColor=#ffffff;dashed=0;verticalLabelPosition=bottom;verticalAlign=top;align=center;html=1;fontSize=10;fontStyle=0;aspect=fixed;shape=rounded=1;whiteSpace=wrap;html=1;;" vertex="1" parent="isolated_a">
          <mxGeometry x="400" y="100" width="180" height="120" as="geometry"/>
        </mxCell>
        <mxCell id="az_b" value="AZ us-east-1b - Secondary" style="fillColor=#E8F5E8;strokeColor=#4CAF50;strokeWidth=2;dashed=1;verticalAlign=top;fontStyle=1;fontColor=#2E7D32;whiteSpace=wrap;html=1;fontSize=12;" vertex="1" parent="vpc_main">
          <mxGeometry x="1300" y="50" width="1200" height="1100" as="geometry"/>
        </mxCell>
        <mxCell id="rds_standby" value="RDS PostgreSQL\nStandby Instance\nRead Replica\nus-east-1b" style="sketch=0;points=[[0,0,0],[0.25,0,0],[0.5,0,0],[0.75,0,0],[1,0,0],[0,1,0],[0.25,1,0],[0.5,1,0],[0.75,1,0],[1,1,0],[0,0.25,0],[0,0.5,0],[0,0.75,0],[1,0.25,0],[1,0.5,0],[1,0.75,0]];outlineConnect=0;fontColor=#232F3E;gradientColor=#4AB29A;gradientDirection=north;fillColor=#116D5B;strokeColor=#ffffff;dashed=0;verticalLabelPosition=bottom;verticalAlign=top;align=center;html=1;fontSize=10;fontStyle=0;aspect=fixed;shape=mxgraph.aws4.rds;" vertex="1" parent="az_b">
          <mxGeometry x="100" y="800" width="200" height="120" as="geometry"/>
        </mxCell>
        <mxCell id="storage_layer" value="Storage &amp; Integration Layer" style="fillColor=#E3F2FD;strokeColor=#1976D2;strokeWidth=3;dashed=1;verticalAlign=top;fontStyle=1;fontColor=#1976D2;whiteSpace=wrap;html=1;fontSize=12;" vertex="1" parent="aws_cloud">
          <mxGeometry x="100" y="1600" width="2600" height="250" as="geometry"/>
        </mxCell>
        <mxCell id="s3_documents" value="S3 Documents\nPDFs &amp; Certificates\n10TB Storage" style="sketch=0;points=[[0,0,0],[0.25,0,0],[0.5,0,0],[0.75,0,0],[1,0,0],[0,1,0],[0.25,1,0],[0.5,1,0],[0.75,1,0],[1,1,0],[0,0.25,0],[0,0.5,0],[0,0.75,0],[1,0.25,0],[1,0.5,0],[1,0.75,0]];outlineConnect=0;fontColor=#232F3E;gradientColor=#60A337;gradientDirection=north;fillColor=#277116;strokeColor=#ffffff;dashed=0;verticalLabelPosition=bottom;verticalAlign=top;align=center;html=1;fontSize=10;fontStyle=0;aspect=fixed;shape=mxgraph.aws4.s3;" vertex="1" parent="storage_layer">
          <mxGeometry x="100" y="80" width="150" height="120" as="geometry"/>
        </mxCell>
        <mxCell id="s3_data_lake" value="S3 Data Lake\n60M Productos\nAnalytics" style="sketch=0;points=[[0,0,0],[0.25,0,0],[0.5,0,0],[0.75,0,0],[1,0,0],[0,1,0],[0.25,1,0],[0.5,1,0],[0.75,1,0],[1,1,0],[0,0.25,0],[0,0.5,0],[0,0.75,0],[1,0.25,0],[1,0.5,0],[1,0.75,0]];outlineConnect=0;fontColor=#232F3E;gradientColor=#60A337;gradientDirection=north;fillColor=#277116;strokeColor=#ffffff;dashed=0;verticalLabelPosition=bottom;verticalAlign=top;align=center;html=1;fontSize=10;fontStyle=0;aspect=fixed;shape=mxgraph.aws4.s3;" vertex="1" parent="storage_layer">
          <mxGeometry x="300" y="80" width="150" height="120" as="geometry"/>
        </mxCell>
        <mxCell id="sqs_queue" value="SQS Queue\nAsync Processing\nBatch Jobs" style="sketch=0;points=[[0,0,0],[0.25,0,0],[0.5,0,0],[0.75,0,0],[1,0,0],[0,1,0],[0.25,1,0],[0.5,1,0],[0.75,1,0],[1,1,0],[0,0.25,0],[0,0.5,0],[0,0.75,0],[1,0.25,0],[1,0.5,0],[1,0.75,0]];outlineConnect=0;fontColor=#232F3E;gradientColor=#E0E0E0;gradientDirection=north;fillColor=#BDBDBD;strokeColor=#ffffff;dashed=0;verticalLabelPosition=bottom;verticalAlign=top;align=center;html=1;fontSize=10;fontStyle=0;aspect=fixed;shape=rounded=1;whiteSpace=wrap;html=1;;" vertex="1" parent="storage_layer">
          <mxGeometry x="500" y="80" width="150" height="120" as="geometry"/>
        </mxCell>
        <mxCell id="sns_notifications" value="SNS\nEmail Notifications\nCertificate Delivery" style="sketch=0;points=[[0,0,0],[0.25,0,0],[0.5,0,0],[0.75,0,0],[1,0,0],[0,1,0],[0.25,1,0],[0.5,1,0],[0.75,1,0],[1,1,0],[0,0.25,0],[0,0.5,0],[0,0.75,0],[1,0.25,0],[1,0.5,0],[1,0.75,0]];outlineConnect=0;fontColor=#232F3E;gradientColor=#E0E0E0;gradientDirection=north;fillColor=#BDBDBD;strokeColor=#ffffff;dashed=0;verticalLabelPosition=bottom;verticalAlign=top;align=center;html=1;fontSize=10;fontStyle=0;aspect=fixed;shape=rounded=1;whiteSpace=wrap;html=1;;" vertex="1" parent="storage_layer">
          <mxGeometry x="700" y="80" width="150" height="120" as="geometry"/>
        </mxCell>
        <mxCell id="users_internet" value="HTTPS" style="endArrow=classic;html=1;rounded=0;strokeColor=#4CAF50;strokeWidth=2;fontColor=#232F3E;fontSize=10;" edge="1" parent="1" source="bmc_users" target="internet">
          <mxGeometry width="50" height="50" relative="1" as="geometry">
            <mxPoint x="0" y="0" as="sourcePoint"/>
            <mxPoint x="0" y="0" as="targetPoint"/>
          </mxGeometry>
        </mxCell>
        <mxCell id="internet_cloudfront" value="Global CDN" style="endArrow=classic;html=1;rounded=0;strokeColor=#4CAF50;strokeWidth=2;fontColor=#232F3E;fontSize=10;" edge="1" parent="1" source="internet" target="cloudfront">
          <mxGeometry width="50" height="50" relative="1" as="geometry">
            <mxPoint x="0" y="0" as="sourcePoint"/>
            <mxPoint x="0" y="0" as="targetPoint"/>
          </mxGeometry>
        </mxCell>
        <mxCell id="cloudfront_waf" value="Security Filter" style="endArrow=classic;html=1;rounded=0;strokeColor=#4CAF50;strokeWidth=2;fontColor=#232F3E;fontSize=10;" edge="1" parent="1" source="cloudfront" target="waf">
          <mxGeometry width="50" height="50" relative="1" as="geometry">
            <mxPoint x="0" y="0" as="sourcePoint"/>
            <mxPoint x="0" y="0" as="targetPoint"/>
          </mxGeometry>
        </mxCell>
        <mxCell id="waf_api" value="Filtered Traffic" style="endArrow=classic;html=1;rounded=0;strokeColor=#4CAF50;strokeWidth=2;fontColor=#232F3E;fontSize=10;" edge="1" parent="1" source="waf" target="api_gateway">
          <mxGeometry width="50" height="50" relative="1" as="geometry">
            <mxPoint x="0" y="0" as="sourcePoint"/>
            <mxPoint x="0" y="0" as="targetPoint"/>
          </mxGeometry>
        </mxCell>
        <mxCell id="api_cognito" value="Authentication" style="endArrow=classic;html=1;rounded=0;strokeColor=#FF9800;strokeWidth=2;fontColor=#232F3E;fontSize=10;" edge="1" parent="1" source="api_gateway" target="cognito">
          <mxGeometry width="50" height="50" relative="1" as="geometry">
            <mxPoint x="0" y="0" as="sourcePoint"/>
            <mxPoint x="0" y="0" as="targetPoint"/>
          </mxGeometry>
        </mxCell>
        <mxCell id="api_alb" value="Load Balance" style="endArrow=classic;html=1;rounded=0;strokeColor=#4CAF50;strokeWidth=2;fontColor=#232F3E;fontSize=10;" edge="1" parent="1" source="api_gateway" target="alb">
          <mxGeometry width="50" height="50" relative="1" as="geometry">
            <mxPoint x="0" y="0" as="sourcePoint"/>
            <mxPoint x="0" y="0" as="targetPoint"/>
          </mxGeometry>
        </mxCell>
        <mxCell id="alb_invoice" value="Invoice Processing" style="endArrow=classic;html=1;rounded=0;strokeColor=#2196F3;strokeWidth=2;fontColor=#232F3E;fontSize=10;" edge="1" parent="1" source="alb" target="invoice_service">
          <mxGeometry width="50" height="50" relative="1" as="geometry">
            <mxPoint x="0" y="0" as="sourcePoint"/>
            <mxPoint x="0" y="0" as="targetPoint"/>
          </mxGeometry>
        </mxCell>
        <mxCell id="alb_product" value="Product Queries" style="endArrow=classic;html=1;rounded=0;strokeColor=#2196F3;strokeWidth=2;fontColor=#232F3E;fontSize=10;" edge="1" parent="1" source="alb" target="product_service">
          <mxGeometry width="50" height="50" relative="1" as="geometry">
            <mxPoint x="0" y="0" as="sourcePoint"/>
            <mxPoint x="0" y="0" as="targetPoint"/>
          </mxGeometry>
        </mxCell>
        <mxCell id="alb_ocr" value="OCR Analysis" style="endArrow=classic;html=1;rounded=0;strokeColor=#2196F3;strokeWidth=2;fontColor=#232F3E;fontSize=10;" edge="1" parent="1" source="alb" target="ocr_service">
          <mxGeometry width="50" height="50" relative="1" as="geometry">
            <mxPoint x="0" y="0" as="sourcePoint"/>
            <mxPoint x="0" y="0" as="targetPoint"/>
          </mxGeometry>
        </mxCell>
        <mxCell id="alb_commission" value="Commission Calc" style="endArrow=classic;html=1;rounded=0;strokeColor=#2196F3;strokeWidth=2;fontColor=#232F3E;fontSize=10;" edge="1" parent="1" source="alb" target="commission_service">
          <mxGeometry width="50" height="50" relative="1" as="geometry">
            <mxPoint x="0" y="0" as="sourcePoint"/>
            <mxPoint x="0" y="0" as="targetPoint"/>
          </mxGeometry>
        </mxCell>
        <mxCell id="alb_certificate" value="PDF Generation" style="endArrow=classic;html=1;rounded=0;strokeColor=#2196F3;strokeWidth=2;fontColor=#232F3E;fontSize=10;" edge="1" parent="1" source="alb" target="certificate_service">
          <mxGeometry width="50" height="50" relative="1" as="geometry">
            <mxPoint x="0" y="0" as="sourcePoint"/>
            <mxPoint x="0" y="0" as="targetPoint"/>
          </mxGeometry>
        </mxCell>
        <mxCell id="invoice_db" value="Invoice Data" style="endArrow=classic;html=1;rounded=0;strokeColor=#9C27B0;strokeWidth=2;fontColor=#232F3E;fontSize=10;" edge="1" parent="1" source="invoice_service" target="rds_primary">
          <mxGeometry width="50" height="50" relative="1" as="geometry">
            <mxPoint x="0" y="0" as="sourcePoint"/>
            <mxPoint x="0" y="0" as="targetPoint"/>
          </mxGeometry>
        </mxCell>
        <mxCell id="product_db" value="Product Queries\n60M records" style="endArrow=classic;html=1;rounded=0;strokeColor=#9C27B0;strokeWidth=2;fontColor=#232F3E;fontSize=10;" edge="1" parent="1" source="product_service" target="rds_primary">
          <mxGeometry width="50" height="50" relative="1" as="geometry">
            <mxPoint x="0" y="0" as="sourcePoint"/>
            <mxPoint x="0" y="0" as="targetPoint"/>
          </mxGeometry>
        </mxCell>
        <mxCell id="ocr_db" value="OCR Results" style="endArrow=classic;html=1;rounded=0;strokeColor=#9C27B0;strokeWidth=2;fontColor=#232F3E;fontSize=10;" edge="1" parent="1" source="ocr_service" target="rds_primary">
          <mxGeometry width="50" height="50" relative="1" as="geometry">
            <mxPoint x="0" y="0" as="sourcePoint"/>
            <mxPoint x="0" y="0" as="targetPoint"/>
          </mxGeometry>
        </mxCell>
        <mxCell id="commission_db" value="Commission Data" style="endArrow=classic;html=1;rounded=0;strokeColor=#9C27B0;strokeWidth=2;fontColor=#232F3E;fontSize=10;" edge="1" parent="1" source="commission_service" target="rds_primary">
          <mxGeometry width="50" height="50" relative="1" as="geometry">
            <mxPoint x="0" y="0" as="sourcePoint"/>
            <mxPoint x="0" y="0" as="targetPoint"/>
          </mxGeometry>
        </mxCell>
        <mxCell id="product_cache" value="Product Cache" style="endArrow=classic;html=1;rounded=0;strokeColor=#2196F3;strokeWidth=2;fontColor=#232F3E;fontSize=10;" edge="1" parent="1" source="product_service" target="elasticache">
          <mxGeometry width="50" height="50" relative="1" as="geometry">
            <mxPoint x="0" y="0" as="sourcePoint"/>
            <mxPoint x="0" y="0" as="targetPoint"/>
          </mxGeometry>
        </mxCell>
        <mxCell id="invoice_cache" value="Session Cache" style="endArrow=classic;html=1;rounded=0;strokeColor=#2196F3;strokeWidth=2;fontColor=#232F3E;fontSize=10;" edge="1" parent="1" source="invoice_service" target="elasticache">
          <mxGeometry width="50" height="50" relative="1" as="geometry">
            <mxPoint x="0" y="0" as="sourcePoint"/>
            <mxPoint x="0" y="0" as="targetPoint"/>
          </mxGeometry>
        </mxCell>
        <mxCell id="certificate_s3" value="PDF Storage" style="endArrow=classic;html=1;rounded=0;strokeColor=#FF9800;strokeWidth=2;fontColor=#232F3E;fontSize=10;" edge="1" parent="1" source="certificate_service" target="s3_documents">
          <mxGeometry width="50" height="50" relative="1" as="geometry">
            <mxPoint x="0" y="0" as="sourcePoint"/>
            <mxPoint x="0" y="0" as="targetPoint"/>
          </mxGeometry>
        </mxCell>
        <mxCell id="ocr_s3" value="Document Upload" style="endArrow=classic;html=1;rounded=0;strokeColor=#FF9800;strokeWidth=2;fontColor=#232F3E;fontSize=10;" edge="1" parent="1" source="ocr_service" target="s3_documents">
          <mxGeometry width="50" height="50" relative="1" as="geometry">
            <mxPoint x="0" y="0" as="sourcePoint"/>
            <mxPoint x="0" y="0" as="targetPoint"/>
          </mxGeometry>
        </mxCell>
        <mxCell id="product_datalake" value="Analytics Data" style="endArrow=classic;html=1;rounded=0;strokeColor=#607D8B;strokeWidth=2;fontColor=#232F3E;fontSize=10;" edge="1" parent="1" source="product_service" target="s3_data_lake">
          <mxGeometry width="50" height="50" relative="1" as="geometry">
            <mxPoint x="0" y="0" as="sourcePoint"/>
            <mxPoint x="0" y="0" as="targetPoint"/>
          </mxGeometry>
        </mxCell>
        <mxCell id="invoice_queue" value="Batch Processing" style="endArrow=classic;html=1;rounded=0;strokeColor=#2196F3;strokeWidth=2;fontColor=#232F3E;fontSize=10;" edge="1" parent="1" source="invoice_service" target="sqs_queue">
          <mxGeometry width="50" height="50" relative="1" as="geometry">
            <mxPoint x="0" y="0" as="sourcePoint"/>
            <mxPoint x="0" y="0" as="targetPoint"/>
          </mxGeometry>
        </mxCell>
        <mxCell id="certificate_sns" value="Email Delivery" style="endArrow=classic;html=1;rounded=0;strokeColor=#2196F3;strokeWidth=2;fontColor=#232F3E;fontSize=10;" edge="1" parent="1" source="certificate_service" target="sns_notifications">
          <mxGeometry width="50" height="50" relative="1" as="geometry">
            <mxPoint x="0" y="0" as="sourcePoint"/>
            <mxPoint x="0" y="0" as="targetPoint"/>
          </mxGeometry>
        </mxCell>
        <mxCell id="db_replication" value="DB Replication" style="endArrow=classic;html=1;rounded=0;strokeColor=#9C27B0;strokeWidth=2;fontColor=#232F3E;fontSize=10;" edge="1" parent="1" source="rds_primary" target="rds_standby">
          <mxGeometry width="50" height="50" relative="1" as="geometry">
            <mxPoint x="0" y="0" as="sourcePoint"/>
            <mxPoint x="0" y="0" as="targetPoint"/>
          </mxGeometry>
        </mxCell>
      </root>
    </mxGraphModel>
  </diagram>
</mxfile>